<svg aria-hidden="true" style="position: absolute; width: 0; height: 0; overflow: hidden;" version="1.1" xmlns="http://www.w3.org/2000/svg" xmlns:xlink="http://www.w3.org/1999/xlink">
<defs>
<symbol id="icon-property-1x" viewBox="0 0 32 32">
<path fill="none" stroke="#fbfbfb" style="stroke: var(--color1, #fbfbfb)" stroke-linejoin="round" stroke-linecap="round" stroke-miterlimit="4" stroke-width="3" d="M24 8l-16 16"></path>
<path fill="none" stroke="#fbfbfb" style="stroke: var(--color1, #fbfbfb)" stroke-linejoin="round" stroke-linecap="round" stroke-miterlimit="4" stroke-width="3" d="M8 8l16 16"></path>
</symbol>
<symbol id="icon-1" viewBox="0 0 32 32">
<path fill="#7a3145" style="fill: var(--color1, #7a3145); stroke: var(--color2, #d4bfc4)" stroke="#d4bfc4" stroke-linejoin="miter" stroke-linecap="butt" stroke-miterlimit="4" stroke-width="3.0769" d="M30.462 16c0 7.987-6.475 14.462-14.462 14.462s-14.462-6.475-14.462-14.462c0-7.987 6.475-14.462 14.462-14.462s14.462 6.475 14.462 14.462z"></path>
<path fill="#fbfbfb" style="fill: var(--color3, #fbfbfb)" d="M17.216 12.249v8.059h-1.45v-6.636h-0.049l-1.882 1.206v-1.341l2.001-1.287h1.379z"></path>
</symbol>
<symbol id="icon-2" viewBox="0 0 32 32">
<path fill="#7a3145" style="fill: var(--color1, #7a3145); stroke: var(--color2, #d4bfc4)" stroke="#d4bfc4" stroke-linejoin="miter" stroke-linecap="butt" stroke-miterlimit="4" stroke-width="3.0769" d="M30.462 16c0 7.987-6.475 14.462-14.462 14.462s-14.462-6.475-14.462-14.462c0-7.987 6.475-14.462 14.462-14.462s14.462 6.475 14.462 14.462z"></path>
<path fill="#fbfbfb" style="fill: var(--color3, #fbfbfb)" d="M12.811 20.308v-1.049l2.802-2.748c0.263-0.27 0.483-0.51 0.66-0.719 0.18-0.209 0.316-0.411 0.406-0.606 0.090-0.198 0.135-0.409 0.135-0.633 0-0.252-0.058-0.471-0.173-0.654s-0.274-0.325-0.476-0.422c-0.198-0.097-0.425-0.146-0.681-0.146-0.267 0-0.499 0.054-0.698 0.162s-0.353 0.261-0.465 0.46c-0.108 0.198-0.162 0.434-0.162 0.709h-1.385c0-0.508 0.115-0.95 0.346-1.325 0.234-0.379 0.557-0.672 0.968-0.882s0.882-0.314 1.412-0.314c0.544 0 1.020 0.101 1.428 0.303s0.725 0.48 0.952 0.833c0.227 0.35 0.341 0.75 0.341 1.201 0 0.303-0.058 0.6-0.173 0.892-0.115 0.288-0.319 0.611-0.611 0.968-0.288 0.353-0.694 0.781-1.217 1.282l-1.385 1.412v0.059h3.505v1.217h-5.528z"></path>
</symbol>
<symbol id="icon-3" viewBox="0 0 32 32">
<path fill="#7a3145" style="fill: var(--color1, #7a3145); stroke: var(--color2, #d4bfc4)" stroke="#d4bfc4" stroke-linejoin="miter" stroke-linecap="butt" stroke-miterlimit="4" stroke-width="3.0769" d="M30.462 16c0 7.987-6.475 14.462-14.462 14.462s-14.462-6.475-14.462-14.462c0-7.987 6.475-14.462 14.462-14.462s14.462 6.475 14.462 14.462z"></path>
<path fill="#fbfbfb" style="fill: var(--color3, #fbfbfb)" d="M15.704 20.416c-0.566 0-1.069-0.096-1.509-0.287-0.44-0.195-0.788-0.465-1.044-0.811-0.252-0.346-0.384-0.746-0.395-1.201h1.471c0.011 0.22 0.081 0.411 0.211 0.573 0.133 0.159 0.31 0.283 0.53 0.373 0.22 0.087 0.465 0.13 0.736 0.13 0.288 0 0.543-0.051 0.763-0.151 0.224-0.105 0.398-0.245 0.525-0.422 0.126-0.18 0.189-0.388 0.189-0.622 0-0.245-0.065-0.462-0.195-0.649-0.126-0.188-0.31-0.334-0.552-0.438s-0.532-0.157-0.871-0.157h-0.719v-1.125h0.719c0.274 0 0.517-0.049 0.73-0.146s0.379-0.233 0.498-0.406c0.119-0.177 0.179-0.382 0.179-0.617 0-0.227-0.052-0.425-0.157-0.595-0.101-0.169-0.245-0.301-0.433-0.395s-0.407-0.141-0.66-0.141c-0.245 0-0.474 0.045-0.687 0.135-0.209 0.087-0.379 0.211-0.508 0.373-0.126 0.162-0.193 0.357-0.2 0.584h-1.401c0.007-0.451 0.135-0.847 0.384-1.19 0.252-0.343 0.59-0.609 1.011-0.8 0.422-0.195 0.894-0.292 1.417-0.292 0.534 0 0.999 0.101 1.395 0.303 0.4 0.198 0.709 0.467 0.925 0.806 0.22 0.339 0.33 0.712 0.33 1.12 0 0.454-0.133 0.835-0.4 1.141s-0.618 0.508-1.055 0.606v0.059c0.563 0.079 0.993 0.288 1.293 0.627 0.303 0.339 0.454 0.761 0.454 1.266 0 0.451-0.128 0.855-0.384 1.212-0.256 0.353-0.608 0.631-1.055 0.833s-0.959 0.303-1.536 0.303z"></path>
</symbol>
<symbol id="icon-batonmobilmen" viewBox="0 0 42 32">
<path fill="none" stroke="#fbfbfb" style="stroke: var(--color1, #fbfbfb)" stroke-linejoin="round" stroke-linecap="round" stroke-miterlimit="4" stroke-width="4.8" d="M3.733 3.2h34.133M3.733 16h17.067M3.733 28.8h34.133"></path>
</symbol>
<symbol id="icon-vector-logo" viewBox="0 0 32 32">
<path fill="#fbfbfb" style="fill: var(--color1, #fbfbfb)" d="M29.082 0.314h-4.009c-1.237 0-2.24 0.983-2.24 2.195v3.929c0 1.212 1.003 2.195 2.24 2.195h4.009c1.237 0 2.24-0.983 2.24-2.195v-3.929c0-1.212-1.003-2.195-2.24-2.195z"></path>
<path fill="#fbfbfb" style="fill: var(--color1, #fbfbfb)" d="M6.73 23.040h-4.318c-1.332 0-2.412 0.983-2.412 2.195v3.929c0 1.213 1.080 2.195 2.412 2.195h4.318c1.332 0 2.412-0.983 2.412-2.195v-3.929c0-1.212-1.080-2.195-2.412-2.195z"></path>
<path fill="#fbfbfb" style="fill: var(--color1, #fbfbfb)" d="M6.25 11.582h-4.009c-1.237 0-2.24 0.983-2.24 2.195v3.929c0 1.212 1.003 2.195 2.24 2.195h4.009c1.237 0 2.24-0.983 2.24-2.195v-3.929c0-1.212-1.003-2.195-2.24-2.195z"></path>
<path fill="#fbfbfb" style="fill: var(--color1, #fbfbfb)" d="M17.766 22.978h-4.009c-1.237 0-2.24 0.983-2.24 2.195l-0 3.929c0 1.212 1.003 2.195 2.241 2.195h4.009c1.237 0 2.24-0.983 2.24-2.195v-3.929c0-1.213-1.003-2.195-2.24-2.195z"></path>
<path fill="#fbfbfb" style="fill: var(--color1, #fbfbfb)" d="M6.25 0.086h-4.009c-1.237 0-2.24 0.983-2.24 2.195v3.929c0 1.212 1.003 2.195 2.24 2.195h4.009c1.237 0 2.24-0.983 2.24-2.195v-3.929c0-1.212-1.003-2.195-2.24-2.195z"></path>
<path fill="#fbfbfb" style="fill: var(--color1, #fbfbfb)" d="M18.076 11.697h-4.009c-1.237 0-2.24 0.983-2.24 2.195v3.929c0 1.212 1.003 2.195 2.24 2.195h4.009c1.237 0 2.24-0.983 2.24-2.195v-3.929c0-1.212-1.003-2.195-2.24-2.195z"></path>
<path fill="#fbfbfb" style="fill: var(--color1, #fbfbfb)" d="M29.333 22.978h-4.010c-1.237 0-2.24 0.983-2.24 2.195v3.929c0 1.212 1.003 2.195 2.24 2.195h4.009c1.237 0 2.24-0.983 2.24-2.195v-3.929c0-1.213-1.003-2.195-2.24-2.195z"></path>
<path fill="#fbfbfb" style="fill: var(--color1, #fbfbfb)" d="M17.591 0.224h-4.009c-1.237 0-2.24 0.983-2.24 2.195v3.929c0 1.212 1.003 2.195 2.24 2.195h4.009c1.237 0 2.24-0.984 2.24-2.196v-3.929c0-1.212-1.003-2.195-2.24-2.195z"></path>
<path fill="#fbfbfb" style="fill: var(--color1, #fbfbfb)" d="M29.044 11.926h-4.010c-1.237 0-2.24 0.983-2.24 2.195v3.929c0 1.212 1.003 2.195 2.24 2.195h4.009c1.237 0 2.24-0.983 2.24-2.195v-3.929c0-1.212-1.003-2.195-2.24-2.195z"></path>
</symbol>
<symbol id="icon-GreenHarvest" viewBox="0 0 389 32">
<path fill="#fbfbfb" style="fill: var(--color1, #fbfbfb)" d="M16.803 32c-10.101 0-16.803-6.272-16.803-16.043 0-9.557 6.606-15.957 16.563-15.957 8.377 0 14.265 4.395 15.127 11.008h-6.941c-0.67-3.797-3.878-5.931-8.186-5.931-6.032 0-9.622 4.352-9.622 10.88 0 7.168 4.021 10.965 9.861 10.965 5.074 0 8.329-2.56 8.665-6.4v-0.427h-9.335v-4.779h15.797v3.925c-0.287 7.637-6.319 12.757-15.127 12.757z"></path>
<path fill="#fbfbfb" style="fill: var(--color1, #fbfbfb)" d="M36.115 31.573v-31.147h16.802c8.569 0 11.968 3.712 11.968 9.088 0 4.821-3.83 7.125-8.282 7.68v0.128c2.872 0.64 4.165 2.048 5.362 4.821 1.532 3.499 1.771 7.68 3.734 9.173v0.256h-7.659c-1.627-1.451-2.010-6.016-2.872-8.789-0.862-2.859-2.729-3.2-6.223-3.2h-6.127v11.989h-6.702zM42.817 14.635h9.383c3.925 0 5.744-2.048 5.744-4.693 0-2.901-2.25-4.565-5.744-4.565h-9.383v9.259z"></path>
<path fill="#fbfbfb" style="fill: var(--color1, #fbfbfb)" d="M69.336 31.573v-31.147h23.887v4.949h-17.186v7.424h15.51v4.949h-15.51v8.747h17.425v5.077h-24.127z"></path>
<path fill="#fbfbfb" style="fill: var(--color1, #fbfbfb)" d="M98.116 31.573v-31.147h23.887v4.949h-17.186v7.424h15.51v4.949h-15.51v8.747h17.425v5.077h-24.127z"></path>
<path fill="#fbfbfb" style="fill: var(--color1, #fbfbfb)" d="M126.897 31.573v-31.147h8.138l11.585 17.195c3.542 5.205 3.973 6.912 3.973 6.912h0.143l-0.096-24.107h6.702v31.147h-8.186l-12.015-17.707c-2.729-4.011-3.447-6.443-3.447-6.443h-0.096v24.149h-6.702z"></path>
<path fill="#fbfbfb" style="fill: var(--color1, #fbfbfb)" d="M162.384 31.573v-6.315h6.989v6.315h-6.989z"></path>
<path fill="#fbfbfb" style="fill: var(--color1, #fbfbfb)" d="M174.406 31.573v-31.147h6.702v12.459h16.037v-12.459h6.702v31.147h-6.702v-13.739h-16.037v13.739h-6.702z"></path>
<path fill="#fbfbfb" style="fill: var(--color1, #fbfbfb)" d="M206.711 31.573l13.404-31.147h7.276l13.595 31.147h-7.181l-2.824-7.168h-14.505l-2.824 7.168h-6.941zM218.391 19.456h10.675l-3.111-7.68c-2.154-5.675-2.202-6.699-2.202-6.699h-0.096c0 0 0 1.024-2.154 6.699l-3.111 7.68z"></path>
<path fill="#fbfbfb" style="fill: var(--color1, #fbfbfb)" d="M243.841 31.573v-31.147h16.803c8.57 0 11.967 3.712 11.967 9.088 0 4.821-3.829 7.125-8.281 7.68v0.128c2.873 0.64 4.164 2.048 5.361 4.821 1.533 3.499 1.771 7.68 3.733 9.173v0.256h-7.658c-1.627-1.451-2.010-6.016-2.872-8.789-0.862-2.859-2.729-3.2-6.223-3.2h-6.127v11.989h-6.702zM250.543 14.635h9.382c3.926 0 5.745-2.048 5.745-4.693 0-2.901-2.25-4.565-5.745-4.565h-9.382v9.259z"></path>
<path fill="#fbfbfb" style="fill: var(--color1, #fbfbfb)" d="M284.168 31.573l-12.829-31.147h7.181c0 0 6.941 17.451 7.659 19.584 1.149 3.413 1.675 5.163 1.675 5.163h0.096c-0.048 0 0.48-1.749 1.675-5.163 0.768-2.133 7.421-19.584 7.421-19.584h6.941l-12.352 31.147h-7.467z"></path>
<path fill="#fbfbfb" style="fill: var(--color1, #fbfbfb)" d="M306.731 31.573v-31.147h23.888v4.949h-17.187v7.424h15.512v4.949h-15.512v8.747h17.427v5.077h-24.128z"></path>
<path fill="#fbfbfb" style="fill: var(--color1, #fbfbfb)" d="M347.496 32c-8.904 0-14.267-4.309-14.267-10.709h7.661c-0.096 3.627 2.584 5.632 6.605 5.632 4.261 0 6.269-1.493 6.269-3.712s-1.723-3.157-7.851-4.651c-5.6-1.365-11.728-2.987-11.728-9.387 0-5.077 4.979-9.173 12.829-9.173 8.091 0 13.261 4.053 13.261 9.771h-7.421c-0.048-3.029-2.344-4.693-5.84-4.693-3.397 0-5.648 1.536-5.648 3.584 0 2.432 1.867 3.2 6.749 4.437 7.229 1.792 13.069 2.517 13.069 9.472 0 5.589-5.696 9.429-13.691 9.429z"></path>
<path fill="#fbfbfb" style="fill: var(--color1, #fbfbfb)" d="M372.099 31.573v-26.069h-10.579v-5.077h27.813v5.077h-10.531v26.069h-6.704z"></path>
</symbol>
</defs>
</svg>
